<svg width="50" height="50" viewBox="0 0 50 50" fill="none" xmlns="http://www.w3.org/2000/svg">
<path d="M24.9943 50C24.0328 49.9947 23.1119 49.5644 22.4306 48.8021L4.41765 28.5642C1.63683 25.4794 0.0500172 21.2874 0.00116226 16.8968C-0.0476927 12.5063 1.44535 8.27099 4.15665 5.10903C6.86796 1.94707 10.579 0.113252 14.4854 0.00507156C18.3919 -0.103109 22.1788 1.52307 25.0254 4.53111C27.8809 1.54925 31.6647 -0.0523452 35.5613 0.0715878C39.4578 0.195521 43.155 2.03506 45.8557 5.19363C48.5565 8.35221 50.0445 12.5768 49.999 16.9568C49.9535 21.3367 48.3781 25.5212 45.6124 28.608L27.5579 48.8313C26.8735 49.5848 25.9524 50.0047 24.9943 50ZM14.8957 5.29949C12.8803 5.29936 10.9103 5.97187 9.2355 7.2317C7.56071 8.49154 6.25665 10.2819 5.48873 12.3758C4.72082 14.4697 4.52364 16.7726 4.92222 18.9926C5.32079 21.2125 6.29716 23.2495 7.72748 24.845L25.0099 44.2561L42.3052 24.8742C43.2621 23.8154 44.0231 22.5543 44.5443 21.1635C45.0655 19.7728 45.3367 18.2799 45.3422 16.7709C45.3476 15.2618 45.0873 13.7665 44.5762 12.371C44.0651 10.9755 43.3133 9.70748 42.3641 8.63995C41.4149 7.57241 40.2872 6.72647 39.0457 6.15088C37.8043 5.57529 36.4738 5.28143 35.1309 5.28622C33.7879 5.29101 32.4591 5.59436 31.2209 6.17879C29.9828 6.76322 28.8598 7.61718 27.9167 8.69147L25.0254 11.952L22.1134 8.67978C21.1693 7.60758 20.0452 6.75668 18.8062 6.17641C17.5672 5.59615 16.238 5.29808 14.8957 5.29949Z" fill="#B7B7B7"/>
</svg>
