<svg width="50" height="50" viewBox="0 0 50 50" fill="none" xmlns="http://www.w3.org/2000/svg">
<g clip-path="url(#clip0_17_1026)">
<path d="M25 12.5C27.2917 12.5 29.1667 14.375 29.1667 16.6667C29.1667 18.9583 27.2917 20.8333 25 20.8333C22.7084 20.8333 20.8334 18.9583 20.8334 16.6667C20.8334 14.375 22.7084 12.5 25 12.5ZM25 33.3333C30.625 33.3333 37.0834 36.0208 37.5 37.5H12.5C12.9792 36 19.3959 33.3333 25 33.3333ZM25 8.33334C20.3959 8.33334 16.6667 12.0625 16.6667 16.6667C16.6667 21.2708 20.3959 25 25 25C29.6042 25 33.3334 21.2708 33.3334 16.6667C33.3334 12.0625 29.6042 8.33334 25 8.33334ZM25 29.1667C19.4375 29.1667 8.33337 31.9583 8.33337 37.5V41.6667H41.6667V37.5C41.6667 31.9583 30.5625 29.1667 25 29.1667Z" fill="#B7B7B7"/>
</g>
<defs>
<clipPath id="clip0_17_1026">
<rect width="50" height="50" fill="white"/>
</clipPath>
</defs>
</svg>
