<svg width="50" height="50" viewBox="0 0 50 50" fill="none" xmlns="http://www.w3.org/2000/svg">
<g clip-path="url(#clip0_17_1023)">
<path d="M22.9166 18.75H27.0833V12.5H33.3333V8.33334H27.0833V2.08334H22.9166V8.33334H16.6666V12.5H22.9166V18.75ZM14.5833 37.5C12.2916 37.5 10.4375 39.375 10.4375 41.6667C10.4375 43.9583 12.2916 45.8333 14.5833 45.8333C16.875 45.8333 18.75 43.9583 18.75 41.6667C18.75 39.375 16.875 37.5 14.5833 37.5ZM35.4166 37.5C33.125 37.5 31.2708 39.375 31.2708 41.6667C31.2708 43.9583 33.125 45.8333 35.4166 45.8333C37.7083 45.8333 39.5833 43.9583 39.5833 41.6667C39.5833 39.375 37.7083 37.5 35.4166 37.5ZM16.875 27.0833H32.3958C33.9583 27.0833 35.3333 26.2292 36.0416 24.9375L44.0833 10.3333L40.4583 8.33334L32.3958 22.9167H17.7708L8.89581 4.16668H2.08331V8.33334H6.24998L13.75 24.1458L10.9375 29.2292C9.41665 32.0208 11.4166 35.4167 14.5833 35.4167H39.5833V31.25H14.5833L16.875 27.0833Z" fill="#B7B7B7"/>
</g>
<defs>
<clipPath id="clip0_17_1023">
<rect width="50" height="50" fill="white"/>
</clipPath>
</defs>
</svg>
